<?xml version="1.0" encoding="utf-8"?>
<!-- Generator: Adobe Illustrator 15.1.0, SVG Export Plug-In . SVG Version: 6.00 Build 0)  -->
<!DOCTYPE svg PUBLIC "-//W3C//DTD SVG 1.1//EN" "http://www.w3.org/Graphics/SVG/1.1/DTD/svg11.dtd">
<svg version="1.1" id="Warstwa_1" xmlns="http://www.w3.org/2000/svg" xmlns:xlink="http://www.w3.org/1999/xlink" x="0px" y="0px"
	 width="46.999px" height="26.99px" viewBox="0 0 46.999 26.99" enable-background="new 0 0 46.999 26.99" xml:space="preserve">
<path fill="#FFFFFF" d="M46.999,17.653v-0.384c-6.731-3.948-8.873-6.691-10.297-9.199V4.714l-0.764-2.652l-0.764,2.652L33.819,0
	l-1.355,4.714L31.7,2.062l-0.763,2.652h0v6.251H16.458V4.714l-0.764-2.652L14.93,4.714L13.575,0l-1.355,4.714l-0.763-2.652
	l-0.764,2.652v2.631h0.001V7.35C9.244,10.059,7.382,12.94,0,17.269v0.385c7.118-4.149,9.236-6.996,10.693-9.616v1.598
	C9.2,12.184,6.927,14.872,0,18.841v0.381c6.663-3.805,9.169-6.528,10.693-8.957l-0.001,8.256H9.656v6.428H8.933v2.04h9.282v-2.04
	h-0.721v-6.428h-1.016h-0.021v-5.723h14.479v5.723H29.9v6.428h-0.722v2.04h9.282v-2.04h-0.721v-6.428h-1.038v-7.653
	c1.565,2.278,4.179,4.86,10.297,8.353v-0.38c-6.345-3.637-8.785-6.196-10.297-8.56l0.001-1.553
	C38.168,11.163,40.501,13.865,46.999,17.653z"/>
</svg>
