<?xml version="1.0" encoding="utf-8"?>
<!-- Generator: Adobe Illustrator 15.1.0, SVG Export Plug-In . SVG Version: 6.00 Build 0)  -->
<!DOCTYPE svg PUBLIC "-//W3C//DTD SVG 1.1//EN" "http://www.w3.org/Graphics/SVG/1.1/DTD/svg11.dtd">
<svg version="1.1" id="Warstwa_1" focusable="false"
	 xmlns="http://www.w3.org/2000/svg" xmlns:xlink="http://www.w3.org/1999/xlink" x="0px" y="0px" width="800px" height="600px"
	 viewBox="0 0 800 600" enable-background="new 0 0 800 600" xml:space="preserve">
<path fill="#FDFDFF" d="M400.117,165.235c-74.531,0-134.648,60.117-134.648,134.648s60.117,134.647,134.648,134.647
	s134.648-60.116,134.648-134.647S474.648,165.235,400.117,165.235z M400.117,387.422c-48.164,0-87.539-39.258-87.539-87.539
	s39.258-87.539,87.539-87.539s87.539,39.258,87.539,87.539S448.281,387.422,400.117,387.422z M571.679,159.727
	c0,17.461-14.063,31.406-31.406,31.406c-17.46,0-31.405-14.063-31.405-31.406s14.063-31.406,31.405-31.406
	C557.617,128.321,571.679,142.383,571.679,159.727z M660.859,191.602c-1.992-42.07-11.602-79.336-42.422-110.039
	C587.734,50.86,550.469,41.25,508.398,39.141c-43.359-2.461-173.32-2.461-216.68,0c-41.953,1.992-79.219,11.602-110.039,42.305
	s-40.313,67.969-42.422,110.039c-2.461,43.359-2.461,173.319,0,216.679c1.992,42.07,11.602,79.337,42.422,110.039
	c30.82,30.703,67.969,40.313,110.039,42.422c43.359,2.462,173.32,2.462,216.68,0c42.07-1.992,79.336-11.601,110.039-42.422
	c30.703-30.703,40.313-67.969,42.422-110.039C663.32,364.804,663.32,234.961,660.859,191.602L660.859,191.602z M604.844,454.688
	c-9.141,22.969-26.836,40.664-49.922,49.922c-34.57,13.711-116.602,10.547-154.805,10.547s-120.352,3.047-154.805-10.547
	c-22.969-9.141-40.664-26.836-49.922-49.922c-13.711-34.57-10.547-116.602-10.547-154.805s-3.047-120.352,10.547-154.805
	c9.141-22.969,26.836-40.664,49.922-49.922c34.57-13.711,116.602-10.547,154.805-10.547s120.352-3.047,154.805,10.547
	c22.969,9.141,40.664,26.836,49.922,49.922c13.711,34.57,10.547,116.602,10.547,154.805S618.554,420.234,604.844,454.688z"/>
</svg>
