<?xml version="1.0" encoding="utf-8"?>
<!-- Generator: Adobe Illustrator 15.1.0, SVG Export Plug-In . SVG Version: 6.00 Build 0)  -->
<!DOCTYPE svg PUBLIC "-//W3C//DTD SVG 1.1//EN" "http://www.w3.org/Graphics/SVG/1.1/DTD/svg11.dtd">
<svg version="1.1" id="Warstwa_1" xmlns="http://www.w3.org/2000/svg" xmlns:xlink="http://www.w3.org/1999/xlink" x="0px" y="0px"
	 width="205px" height="43.002px" viewBox="0 0 205 43.002" enable-background="new 0 0 205 43.002" xml:space="preserve">
<path fill="#FFFFFF" d="M4.019,25.783H0v-25.4h4.019v10.663h12.728V0.383h4.054v25.4h-4.054V14.808H4.019V25.783z"/>
<path fill="#FFFFFF" d="M33.801,25.783h-4.125l10.471-25.4h4.759l10.401,25.4h-4.196l-2.363-5.958H36.198L33.801,25.783z
	 M47.375,16.271L42.474,4.215l-4.865,12.056H47.375z"/>
<path fill="#FFFFFF" d="M68.269,0.383V22.09h11.599v3.693H64.25v-25.4H68.269z"/>
<path fill="#FFFFFF" d="M89.248,21.253c-1.657-2.021-2.679-4.912-2.679-8.083c0-1.881,0.353-3.623,1.058-5.295
	c0.705-1.638,1.657-3.032,2.856-4.181c1.198-1.115,2.609-2.021,4.196-2.684C96.264,0.348,97.92,0,99.648,0
	c2.785,0,5.324,0.801,7.086,1.916c0.846,0.592,1.622,1.219,2.327,1.985c1.34,1.499,2.08,2.962,2.468,4.425l-3.984,1.359
	c-0.177-0.8-0.458-1.602-1.269-2.752c-0.423-0.592-0.917-1.114-1.481-1.533c-1.093-0.906-2.997-1.638-5.183-1.638
	c-2.292,0-4.442,0.941-6.099,2.509c-1.622,1.568-2.715,4.007-2.715,6.759c0,2.753,1.057,5.227,2.679,6.794
	c1.622,1.568,3.807,2.509,6.099,2.509c2.01,0,3.843-0.697,4.971-1.568c0.564-0.453,1.093-0.941,1.552-1.534
	c0.881-1.149,1.269-2.055,1.516-2.926l3.984,1.358c-0.459,1.603-1.516,3.659-3.526,5.366c-1.375,1.15-2.961,2.091-5.112,2.648
	c-1.128,0.279-2.292,0.418-3.49,0.418C95.594,26.132,91.716,24.354,89.248,21.253z"/>
<path fill="#FFFFFF" d="M127.187,15.644l-9.66-15.261h4.654l7.052,11.394l7.087-11.394h4.618l-9.696,15.157v10.243h-4.055V15.644z"
	/>
<path fill="#FFFFFF" d="M147.525,7.979c0.67-1.637,1.622-3.031,2.82-4.181c1.163-1.185,2.573-2.09,4.231-2.752
	C156.162,0.348,157.89,0,159.688,0c2.398,0,4.619,0.592,6.628,1.707c2.01,1.115,3.596,2.683,4.76,4.703
	c1.164,1.987,1.763,4.216,1.763,6.62c0,1.847-0.353,3.555-1.058,5.192c-0.705,1.638-1.656,3.031-2.82,4.146
	c-1.199,1.149-2.609,2.056-4.231,2.718c-1.657,0.662-3.349,1.01-5.147,1.01c-1.798,0-3.49-0.348-5.112-1.01
	c-1.622-0.627-3.032-1.533-4.196-2.648c-1.164-1.15-2.08-2.509-2.785-4.146c-0.67-1.567-1.022-3.31-1.022-5.157
	C146.467,11.323,146.819,9.581,147.525,7.979z M159.653,22.369c2.468,0,4.759-1.081,6.381-2.717
	c1.586-1.673,2.574-4.077,2.574-6.585c0-1.708-0.388-3.276-1.164-4.704c-0.811-1.429-1.904-2.543-3.278-3.38
	c-1.375-0.836-2.891-1.253-4.513-1.253c-4.971-0.105-9.061,4.25-8.955,9.337C150.592,18.083,154.681,22.474,159.653,22.369z"/>
<path fill="#FFFFFF" d="M200.487,25.783L187.301,6.341v19.441h-3.984v-25.4h4.654l13.045,19.337V0.383H205v25.4H200.487z"/>
<path fill="#FFFFFF" d="M0,32.854h0.756v6.372h3.396v0.699H0V32.854z"/>
<path fill="#FFFFFF" d="M12.481,38.207c-0.314,0.553-0.746,0.99-1.296,1.309c-0.559,0.321-1.167,0.485-1.854,0.485
	c-0.5,0-0.971-0.097-1.423-0.28c-0.441-0.184-0.824-0.437-1.138-0.767c-0.314-0.311-0.559-0.688-0.746-1.135
	c-0.177-0.446-0.275-0.912-0.275-1.406c0-0.669,0.157-1.28,0.471-1.833c0.304-0.554,0.736-1,1.295-1.319
	c0.55-0.32,1.168-0.476,1.845-0.476c0.5,0,0.971,0.088,1.423,0.271c0.441,0.194,0.824,0.446,1.138,0.757
	c0.314,0.33,0.57,0.707,0.746,1.144c0.187,0.446,0.276,0.912,0.276,1.417C12.943,37.043,12.785,37.654,12.481,38.207z
	 M11.382,34.347c-0.491-0.533-1.227-0.873-2.051-0.873c-0.53,0-1.011,0.135-1.443,0.388c-0.432,0.272-0.765,0.621-1.001,1.058
	c-0.236,0.446-0.353,0.931-0.353,1.455c0,0.786,0.295,1.532,0.785,2.056c0.491,0.534,1.227,0.874,2.042,0.874
	c0.53,0,1.011-0.136,1.442-0.398c0.441-0.251,0.775-0.611,1.011-1.047c0.235-0.437,0.353-0.922,0.353-1.445
	C12.167,35.618,11.873,34.881,11.382,34.347z"/>
<path fill="#FFFFFF" d="M21.562,32.854v7.071h-0.814l-4.27-6.014v6.014h-0.746v-7.071h0.873l4.22,5.946v-5.946H21.562z"/>
<path fill="#FFFFFF" d="M24.798,32.854h2.129c0.55,0,1.06,0.088,1.531,0.272c0.471,0.175,0.874,0.427,1.197,0.737
	c0.658,0.631,1.05,1.522,1.05,2.512c0,0.514-0.098,0.999-0.295,1.445c-0.196,0.446-0.471,0.815-0.805,1.125
	c-0.677,0.61-1.639,0.979-2.679,0.979h-2.129V32.854z M25.553,39.226h1.345c0.599,0,1.129-0.126,1.58-0.369
	c0.462-0.242,0.825-0.572,1.07-0.999c0.256-0.427,0.383-0.922,0.383-1.465c0-0.805-0.304-1.522-0.824-2.037
	c-0.51-0.504-1.305-0.805-2.208-0.805h-1.345V39.226z"/>
<path fill="#FFFFFF" d="M39.757,38.207c-0.314,0.553-0.746,0.99-1.296,1.309c-0.559,0.321-1.167,0.485-1.854,0.485
	c-0.501,0-0.972-0.097-1.423-0.28c-0.442-0.184-0.824-0.437-1.138-0.767c-0.314-0.311-0.559-0.688-0.746-1.135
	c-0.177-0.446-0.275-0.912-0.275-1.406c0-0.669,0.157-1.28,0.471-1.833c0.304-0.554,0.736-1,1.295-1.319
	c0.55-0.32,1.168-0.476,1.845-0.476c0.5,0,0.971,0.088,1.423,0.271c0.442,0.194,0.824,0.446,1.138,0.757
	c0.314,0.33,0.57,0.707,0.746,1.144c0.187,0.446,0.275,0.912,0.275,1.417C40.219,37.043,40.061,37.654,39.757,38.207z
	 M38.658,34.347c-0.491-0.533-1.227-0.873-2.051-0.873c-0.53,0-1.011,0.135-1.443,0.388c-0.432,0.272-0.766,0.621-1.001,1.058
	c-0.236,0.446-0.353,0.931-0.353,1.455c0,0.786,0.294,1.532,0.785,2.056c0.491,0.534,1.227,0.874,2.041,0.874
	c0.53,0,1.01-0.136,1.442-0.398c0.442-0.251,0.776-0.611,1.011-1.047c0.236-0.437,0.353-0.922,0.353-1.445
	C39.443,35.618,39.149,34.881,38.658,34.347z"/>
<path fill="#FFFFFF" d="M48.838,32.854v7.071h-0.814l-4.269-6.014v6.014h-0.745v-7.071h0.873l4.22,5.946v-5.946H48.838z"/>
<path fill="#FFFFFF" d="M56.125,32.854h0.756v7.071h-0.756V32.854z"/>
<path fill="#FFFFFF" d="M65.924,32.854v7.071h-0.815l-4.269-6.014v6.014h-0.746v-7.071h0.873l4.22,5.946v-5.946H65.924z"/>
<path fill="#FFFFFF" d="M71.491,39.924h-0.746v-6.372h-2.394v-0.699h5.535v0.699h-2.395V39.924z"/>
<path fill="#FFFFFF" d="M76.307,32.854h4.475v0.689h-3.719v2.444h3.405v0.688h-3.405v2.56h3.759v0.689h-4.514V32.854z"/>
<path fill="#FFFFFF" d="M87.8,39.924l-2.12-2.861h-1.453v2.861h-0.755v-7.071h2.482c0.844,0,1.521,0.233,1.914,0.621
	c0.392,0.388,0.599,0.873,0.599,1.445c0,1.192-0.903,1.881-1.962,2.017l2.208,2.988H87.8z M84.228,36.383h1.659
	c0.627,0,1.118-0.174,1.403-0.455c0.274-0.271,0.412-0.611,0.412-0.989c0-0.699-0.432-1.387-1.796-1.387h-1.678V36.383z"/>
<path fill="#FFFFFF" d="M97.118,32.854v7.071h-0.814l-4.269-6.014v6.014h-0.746v-7.071h0.873l4.22,5.946v-5.946H97.118z"/>
<path fill="#FFFFFF" d="M104.908,38.121h-3.896l-0.785,1.804h-0.765l3.081-7.071h0.854l3.091,7.071h-0.795L104.908,38.121z
	 M102.955,33.62l-1.658,3.821h3.327L102.955,33.62z"/>
<path fill="#FFFFFF" d="M110.361,39.924h-0.746v-6.372h-2.395v-0.699h5.535v0.699h-2.394V39.924z"/>
<path fill="#FFFFFF" d="M115.177,32.854h0.755v7.071h-0.755V32.854z"/>
<path fill="#FFFFFF" d="M125.431,38.207c-0.314,0.553-0.746,0.99-1.295,1.309c-0.559,0.321-1.168,0.485-1.855,0.485
	c-0.5,0-0.971-0.097-1.423-0.28c-0.442-0.184-0.824-0.437-1.138-0.767c-0.314-0.311-0.56-0.688-0.746-1.135
	c-0.177-0.446-0.275-0.912-0.275-1.406c0-0.669,0.157-1.28,0.471-1.833c0.304-0.554,0.736-1,1.295-1.319
	c0.55-0.32,1.168-0.476,1.845-0.476c0.501,0,0.972,0.088,1.423,0.271c0.442,0.194,0.824,0.446,1.138,0.757
	c0.314,0.33,0.569,0.707,0.746,1.144c0.186,0.446,0.275,0.912,0.275,1.417C125.893,37.043,125.736,37.654,125.431,38.207z
	 M124.332,34.347c-0.49-0.533-1.227-0.873-2.051-0.873c-0.53,0-1.011,0.135-1.443,0.388c-0.432,0.272-0.765,0.621-1.001,1.058
	c-0.235,0.446-0.353,0.931-0.353,1.455c0,0.786,0.295,1.532,0.785,2.056c0.491,0.534,1.227,0.874,2.042,0.874
	c0.53,0,1.011-0.136,1.443-0.398c0.441-0.251,0.775-0.611,1.01-1.047c0.236-0.437,0.354-0.922,0.354-1.445
	C125.118,35.618,124.823,34.881,124.332,34.347z"/>
<path fill="#FFFFFF" d="M134.512,32.854v7.071h-0.815l-4.269-6.014v6.014h-0.746v-7.071h0.873l4.22,5.946v-5.946H134.512z"/>
<path fill="#FFFFFF" d="M142.302,38.121h-3.896l-0.785,1.804h-0.765l3.081-7.071h0.854l3.091,7.071h-0.795L142.302,38.121z
	 M140.349,33.62l-1.658,3.821h3.327L140.349,33.62z"/>
<path fill="#FFFFFF" d="M146.226,32.854h0.755v6.372h3.396v0.699h-4.151V32.854z"/>
<path fill="#FFFFFF" d="M157.086,39.371c-0.441-0.378-0.726-0.882-0.785-1.377l0.707-0.194c0.078,0.417,0.295,0.767,0.648,1.057
	c0.344,0.291,0.736,0.436,1.177,0.436c0.412,0,0.795-0.096,1.099-0.31c0.304-0.204,0.5-0.553,0.5-0.979
	c0-0.495-0.265-0.815-0.599-1.009c-0.236-0.135-0.442-0.193-0.677-0.242l-0.942-0.185c-0.196-0.039-0.403-0.107-0.628-0.204
	c-0.225-0.107-0.422-0.233-0.589-0.398c-0.333-0.319-0.5-0.727-0.5-1.222c0-0.388,0.108-0.737,0.324-1.038
	c0.216-0.311,0.49-0.533,0.834-0.698c0.344-0.156,0.706-0.233,1.109-0.233c1.541,0,2.218,0.941,2.365,1.697l-0.688,0.213
	c-0.117-0.504-0.579-1.222-1.688-1.222c-0.765-0.019-1.511,0.515-1.501,1.251c0,0.543,0.343,0.979,1.04,1.115l0.903,0.175
	c0.608,0.116,1.079,0.32,1.393,0.62c0.216,0.194,0.373,0.417,0.471,0.65c0.098,0.242,0.147,0.456,0.147,0.65
	c0.01,1.241-1.05,2.095-2.375,2.065C158.156,39.992,157.509,39.74,157.086,39.371z"/>
<path fill="#FFFFFF" d="M164.518,39.002c-0.314-0.31-0.569-0.688-0.755-1.135c-0.187-0.456-0.285-0.941-0.285-1.455
	c0-0.524,0.098-1.019,0.295-1.474c0.196-0.457,0.451-0.844,0.775-1.154c0.658-0.631,1.571-1.009,2.532-1.009
	c0.756,0,1.443,0.223,1.904,0.543c0.235,0.155,0.442,0.339,0.628,0.543c0.363,0.417,0.559,0.834,0.667,1.241l-0.717,0.252
	c-0.059-0.233-0.157-0.485-0.422-0.854c-0.137-0.184-0.284-0.349-0.461-0.494c-0.177-0.146-0.402-0.272-0.687-0.368
	c-0.285-0.106-0.589-0.156-0.932-0.156c-0.746,0-1.462,0.301-1.963,0.795c-0.51,0.504-0.834,1.251-0.834,2.085
	c0,0.553,0.118,1.057,0.363,1.503c0.236,0.446,0.569,0.796,1.011,1.047c0.422,0.252,0.902,0.378,1.433,0.378
	c0.657,0,1.227-0.223,1.57-0.494c0.177-0.136,0.334-0.291,0.471-0.485c0.138-0.185,0.235-0.349,0.304-0.484
	c0.059-0.136,0.118-0.282,0.167-0.428l0.717,0.252c-0.108,0.378-0.295,0.767-0.658,1.203c-0.177,0.213-0.392,0.408-0.618,0.572
	c-0.471,0.33-1.188,0.572-1.973,0.572C166.069,40.001,165.156,39.624,164.518,39.002z"/>
<path fill="#FFFFFF" d="M177.807,36.685h-4.072v3.24h-0.756v-7.071h0.756v3.133h4.072v-3.133h0.756v7.071h-0.756V36.685z"/>
<path fill="#FFFFFF" d="M188.081,38.207c-0.314,0.553-0.746,0.99-1.295,1.309c-0.559,0.321-1.168,0.485-1.855,0.485
	c-0.501,0-0.972-0.097-1.423-0.28c-0.442-0.184-0.824-0.437-1.139-0.767c-0.314-0.311-0.56-0.688-0.746-1.135
	c-0.177-0.446-0.274-0.912-0.274-1.406c0-0.669,0.157-1.28,0.471-1.833c0.304-0.554,0.736-1,1.295-1.319
	c0.55-0.32,1.168-0.476,1.845-0.476c0.501,0,0.972,0.088,1.423,0.271c0.442,0.194,0.824,0.446,1.139,0.757
	c0.314,0.33,0.569,0.707,0.746,1.144c0.187,0.446,0.274,0.912,0.274,1.417C188.542,37.043,188.385,37.654,188.081,38.207z
	 M186.981,34.347c-0.491-0.533-1.227-0.873-2.051-0.873c-0.53,0-1.011,0.135-1.443,0.388c-0.432,0.272-0.766,0.621-1.001,1.058
	c-0.235,0.446-0.353,0.931-0.353,1.455c0,0.786,0.294,1.532,0.785,2.056c0.491,0.534,1.227,0.874,2.041,0.874
	c0.53,0,1.011-0.136,1.443-0.398c0.442-0.251,0.775-0.611,1.011-1.047c0.236-0.437,0.354-0.922,0.354-1.445
	C187.766,35.618,187.472,34.881,186.981,34.347z"/>
<path fill="#FFFFFF" d="M197.598,38.207c-0.314,0.553-0.746,0.99-1.295,1.309c-0.559,0.321-1.168,0.485-1.855,0.485
	c-0.501,0-0.972-0.097-1.423-0.28c-0.442-0.184-0.824-0.437-1.139-0.767c-0.314-0.311-0.56-0.688-0.746-1.135
	c-0.177-0.446-0.274-0.912-0.274-1.406c0-0.669,0.157-1.28,0.471-1.833c0.304-0.554,0.736-1,1.295-1.319
	c0.549-0.32,1.168-0.476,1.845-0.476c0.501,0,0.972,0.088,1.423,0.271c0.442,0.194,0.824,0.446,1.139,0.757
	c0.314,0.33,0.569,0.707,0.746,1.144c0.187,0.446,0.274,0.912,0.274,1.417C198.059,37.043,197.902,37.654,197.598,38.207z
	 M196.499,34.347c-0.491-0.533-1.227-0.873-2.051-0.873c-0.53,0-1.011,0.135-1.443,0.388c-0.432,0.272-0.766,0.621-1.001,1.058
	c-0.235,0.446-0.353,0.931-0.353,1.455c0,0.786,0.294,1.532,0.785,2.056c0.491,0.534,1.227,0.874,2.041,0.874
	c0.53,0,1.011-0.136,1.443-0.398c0.442-0.251,0.776-0.611,1.011-1.047c0.236-0.437,0.354-0.922,0.354-1.445
	C197.283,35.618,196.989,34.881,196.499,34.347z"/>
<path fill="#FFFFFF" d="M200.849,32.854h0.755v6.372H205v0.699h-4.151V32.854z"/>
</svg>
