<?xml version="1.0" encoding="utf-8"?>
<!-- Generator: Adobe Illustrator 15.1.0, SVG Export Plug-In . SVG Version: 6.00 Build 0)  -->
<!DOCTYPE svg PUBLIC "-//W3C//DTD SVG 1.1//EN" "http://www.w3.org/Graphics/SVG/1.1/DTD/svg11.dtd">
<svg version="1.1" id="Warstwa_1" focusable="false"
	 xmlns="http://www.w3.org/2000/svg" xmlns:xlink="http://www.w3.org/1999/xlink" x="0px" y="0px" width="800px" height="600px"
	 viewBox="0 0 800 600" enable-background="new 0 0 800 600" xml:space="preserve">
<path fill="#241fc2" d="M638.324,177.792c0.381,5.33,0.381,10.66,0.381,15.99c0,162.563-123.729,349.872-349.872,349.872
	c-69.671,0-134.391-20.178-188.833-55.202c9.899,1.142,19.416,1.522,29.695,1.522c57.486,0,110.406-19.416,152.665-52.537
	c-54.061-1.143-99.365-36.549-114.975-85.28c7.614,1.142,15.229,1.903,23.224,1.903c11.04,0,22.082-1.523,32.36-4.188
	c-56.345-11.422-98.605-60.913-98.605-120.685v-1.522c16.37,9.137,35.407,14.848,55.584,15.608
	c-33.122-22.082-54.822-59.771-54.822-102.412c0-22.842,6.091-43.781,16.751-62.055c60.533,74.619,151.523,123.349,253.553,128.68
	c-1.903-9.137-3.046-18.654-3.046-28.172c0-67.768,54.823-122.97,122.97-122.97c35.406,0,67.386,14.848,89.848,38.833
	c27.791-5.33,54.441-15.609,78.046-29.695c-9.138,28.554-28.554,52.538-54.061,67.766c24.746-2.664,48.731-9.518,70.812-19.035
	C683.25,138.579,662.309,160.279,638.324,177.792L638.324,177.792z"/>
</svg>
