<?xml version="1.0" encoding="utf-8"?>
<!-- Generator: Adobe Illustrator 15.1.0, SVG Export Plug-In . SVG Version: 6.00 Build 0)  -->
<!DOCTYPE svg PUBLIC "-//W3C//DTD SVG 1.1//EN" "http://www.w3.org/Graphics/SVG/1.1/DTD/svg11.dtd">
<svg version="1.1" id="Warstwa_1" xmlns="http://www.w3.org/2000/svg" xmlns:xlink="http://www.w3.org/1999/xlink" x="0px" y="0px"
	 width="47px" height="26.99px" viewBox="0 0 47 26.99" enable-background="new 0 0 47 26.99" xml:space="preserve">
<path fill="#E2F2F4" d="M47,17.653v-0.384c-6.731-3.948-8.873-6.691-10.297-9.199V4.714l-0.765-2.651l-0.765,2.651L33.819,0
	l-1.354,4.714l-0.764-2.651l-0.764,2.651l0,0v6.251H16.458V4.714l-0.764-2.651L14.93,4.714L13.575,0L12.22,4.714l-0.763-2.651
	l-0.764,2.651v2.632h0.001V7.35C9.244,10.059,7.382,12.94,0,17.269v0.385c7.118-4.149,9.236-6.996,10.693-9.616v1.599
	C9.2,12.184,6.927,14.872,0,18.841v0.382c6.663-3.806,9.169-6.528,10.693-8.957l-0.001,8.256H9.656v6.428H8.933v2.04h9.282v-2.04
	h-0.721v-6.428h-1.016h-0.021v-5.724h14.479v5.724H29.9v6.428h-0.722v2.04h9.282v-2.04h-0.722v-6.428h-1.038v-7.653
	c1.565,2.278,4.18,4.86,10.297,8.354v-0.381c-6.345-3.637-8.785-6.195-10.297-8.56l0.002-1.553
	C38.167,11.163,40.501,13.865,47,17.653z"/>
</svg>
