<?xml version="1.0" encoding="utf-8"?>
<!-- Generator: Adobe Illustrator 15.1.0, SVG Export Plug-In . SVG Version: 6.00 Build 0)  -->
<!DOCTYPE svg PUBLIC "-//W3C//DTD SVG 1.1//EN" "http://www.w3.org/Graphics/SVG/1.1/DTD/svg11.dtd">
<svg version="1.1" id="Warstwa_1" xmlns="http://www.w3.org/2000/svg" xmlns:xlink="http://www.w3.org/1999/xlink" x="0px" y="0px"
	 width="1920px" height="260.987px" viewBox="0 0 1920 260.987" enable-background="new 0 0 1920 260.987" xml:space="preserve">
<path fill="#FDFDFE" d="M56.859,251.318H20.001V17.729h36.859v98.049h116.724V17.729h37.179v233.589h-37.179V150.385H56.859V251.318
	z"/>
<path fill="#FDFDFE" d="M329.982,251.318h-37.827l96.027-233.589h43.647l95.383,233.589h-38.476l-21.666-54.792H351.968
	L329.982,251.318z M454.463,163.842L409.519,52.976l-44.615,110.866H454.463z"/>
<path fill="#FDFDFE" d="M646.073,17.729v199.624h106.373v33.965H609.215V17.729H646.073z"/>
<path fill="#FDFDFE" d="M838.465,209.664c-15.193-18.586-24.571-45.18-24.571-74.339c0-17.303,3.234-33.323,9.698-48.704
	c6.468-15.061,15.197-27.877,26.192-38.451c10.99-10.254,23.922-18.583,38.476-24.673c14.549-6.088,29.742-9.292,45.588-9.292
	c25.54,0,48.822,7.371,64.988,17.624c7.761,5.446,14.873,11.214,21.337,18.264c12.288,13.778,19.076,27.237,22.634,40.694
	l-36.534,12.496c-1.617-7.37-4.203-14.739-11.639-25.312c-3.883-5.448-8.41-10.254-13.581-14.1
	c-10.022-8.332-27.485-15.061-47.529-15.061c-21.017,0-40.737,8.653-55.935,23.071c-14.873,14.418-24.895,36.85-24.895,62.161
	c0,25.315,9.698,48.063,24.571,62.483c14.874,14.419,34.917,23.07,55.935,23.07c18.432,0,35.242-6.408,45.588-14.418
	c5.176-4.166,10.027-8.652,14.229-14.1c8.081-10.572,11.639-18.904,13.901-26.915l36.538,12.497
	c-4.207,14.74-13.904,33.645-32.336,49.347c-12.607,10.572-27.156,19.223-46.881,24.351c-10.346,2.564-21.017,3.845-32.007,3.845
	C896.665,254.524,861.099,238.181,838.465,209.664z"/>
<path fill="#FDFDFE" d="M1186.401,158.075l-88.59-140.345h42.678l64.668,104.779l64.988-104.779h42.354l-88.914,139.384v94.205
	h-37.184V158.075z"/>
<path fill="#FDFDFE" d="M1372.909,87.583c6.144-15.061,14.874-27.877,25.864-38.452c10.671-10.894,23.603-19.226,38.8-25.312
	c14.549-6.411,30.395-9.614,46.881-9.614c21.99,0,42.358,5.446,60.785,15.7c18.432,10.254,32.98,24.674,43.651,43.257
	c10.67,18.264,16.166,38.771,16.166,60.88c0,16.984-3.234,32.686-9.702,47.744c-6.464,15.059-15.193,27.877-25.864,38.131
	c-10.995,10.573-23.927,18.904-38.8,24.993c-15.197,6.087-30.715,9.292-47.205,9.292s-32.007-3.205-46.881-9.292
	c-14.873-5.767-27.805-14.099-38.476-24.353c-10.67-10.575-19.076-23.07-25.544-38.13c-6.144-14.418-9.378-30.439-9.378-47.423
	C1363.207,118.343,1366.441,102.32,1372.909,87.583z M1484.134,219.917c22.63,0,43.647-9.935,58.521-24.994
	c14.549-15.38,23.602-37.49,23.602-60.559c0-15.702-3.558-30.12-10.67-43.258c-7.437-13.137-17.459-23.391-30.066-31.082
	c-12.612-7.689-26.513-11.534-41.386-11.534c-45.592-0.962-83.095,39.092-82.127,85.874
	C1401.039,180.505,1438.542,220.879,1484.134,219.917z"/>
<path fill="#FDFDFE" d="M1858.613,251.318L1737.69,72.522v178.796h-36.534V17.729h42.678l119.63,177.835V17.729h36.534v233.589
	H1858.613z"/>
</svg>
