<?xml version="1.0" encoding="utf-8"?>
<!-- Generator: Adobe Illustrator 15.1.0, SVG Export Plug-In . SVG Version: 6.00 Build 0)  -->
<!DOCTYPE svg PUBLIC "-//W3C//DTD SVG 1.1//EN" "http://www.w3.org/Graphics/SVG/1.1/DTD/svg11.dtd">
<svg version="1.1" id="Warstwa_1" xmlns="http://www.w3.org/2000/svg" xmlns:xlink="http://www.w3.org/1999/xlink" x="0px" y="0px"
	 width="32.003px" height="24px" viewBox="0 0 32.003 24" enable-background="new 0 0 32.003 24" xml:space="preserve">
<g>
	<path fill="#fe6267" d="M25.138,1c1.604,0,2.953,0.577,4.121,1.765c1.173,1.193,1.744,2.613,1.744,4.339
		c0,2.449-0.564,4.781-1.677,6.931c-1.136,2.193-2.531,4.073-4.146,5.586c-1.38,1.293-2.78,2.33-4.172,3.092l-2.284-3.24
		c1.015-0.709,1.944-1.547,2.771-2.499c1.067-1.231,1.824-2.391,2.251-3.449l0.44-1.091l-1.148-0.258
		c-1.193-0.268-2.143-0.885-2.906-1.887c-0.772-1.012-1.148-2.085-1.148-3.281c0-1.658,0.583-3.042,1.783-4.234
		C21.968,1.58,23.398,1,25.138,1 M7.735,1c1.526,0,2.835,0.616,4.001,1.884c1.189,1.294,1.767,2.737,1.767,4.412
		c0,2.453-0.549,4.771-1.631,6.889c-1.102,2.157-2.463,4.003-4.047,5.485C6.47,20.937,5.06,21.96,3.622,22.719l-2.229-3.254
		c0.974-0.705,1.891-1.536,2.736-2.479c1.116-1.248,1.868-2.341,2.3-3.343l0.433-1.003l-1.037-0.343
		c-1.179-0.39-2.15-1.07-2.97-2.081C2.062,9.24,1.677,8.19,1.677,7.007c0-1.723,0.567-3.123,1.735-4.282
		C4.581,1.564,5.995,1,7.735,1 M25.138,0c-1.999,0-3.691,0.688-5.076,2.064c-1.387,1.377-2.079,3.024-2.079,4.943
		c0,1.409,0.45,2.705,1.354,3.888c0.902,1.185,2.062,1.937,3.481,2.256c-0.387,0.96-1.08,2.016-2.079,3.168
		c-1,1.152-2.144,2.112-3.432,2.88L20.69,24c1.74-0.831,3.464-2.048,5.173-3.648c1.707-1.599,3.157-3.552,4.351-5.856
		c1.192-2.303,1.789-4.767,1.789-7.391c0-1.983-0.677-3.663-2.031-5.04C28.619,0.688,27.007,0,25.138,0L25.138,0z M7.735,0
		C5.736,0,4.061,0.672,2.707,2.016c-1.354,1.344-2.03,3.01-2.03,4.992c0,1.409,0.467,2.688,1.402,3.84
		c0.934,1.152,2.079,1.953,3.433,2.4c-0.387,0.897-1.097,1.92-2.127,3.072C2.352,17.471,1.224,18.432,0,19.2L3.287,24
		c1.804-0.831,3.544-2.031,5.221-3.6c1.675-1.568,3.094-3.489,4.254-5.76c1.16-2.271,1.74-4.72,1.74-7.344
		c0-1.92-0.677-3.615-2.03-5.088C11.119,0.736,9.539,0,7.735,0L7.735,0z"/>
</g>
</svg>
