<?xml version="1.0" encoding="utf-8"?>
<!-- Generator: Adobe Illustrator 15.1.0, SVG Export Plug-In . SVG Version: 6.00 Build 0)  -->
<!DOCTYPE svg PUBLIC "-//W3C//DTD SVG 1.1//EN" "http://www.w3.org/Graphics/SVG/1.1/DTD/svg11.dtd">
<svg version="1.1" id="Warstwa_1" focusable="false"
	 xmlns="http://www.w3.org/2000/svg" xmlns:xlink="http://www.w3.org/1999/xlink" x="0px" y="0px" width="600.029px" height="600px"
	 viewBox="100 0 600.029 600" enable-background="new 100 0 600.029 600" xml:space="preserve">
<path fill="#FFFFFF" d="M695.898,564.375L544.726,413.203c-2.695-2.695-6.211-4.102-9.961-4.102h-12.07
	C562.89,365.625,587.5,307.617,587.5,243.75C587.5,109.102,478.398,0,343.75,0S100,109.102,100,243.75S209.101,487.5,343.75,487.5
	c63.867,0,121.875-24.609,165.352-64.688v11.954c0,3.75,1.523,7.266,4.102,9.961l151.172,151.172c5.508,5.508,14.414,5.508,19.922,0
	l11.602-11.602C701.406,578.788,701.406,569.883,695.898,564.375z M343.75,450c-114.023,0-206.25-92.228-206.25-206.25
	c0-114.023,92.227-206.25,206.25-206.25S550,129.727,550,243.75C550,357.773,457.773,450,343.75,450z"/>
</svg>
